<svg width="16" height="15" viewBox="0 0 16 15" fill="none" xmlns="http://www.w3.org/2000/svg">
<path d="M2.17 9.10001C3.36846 9.10001 4.34 8.12847 4.34 6.93001C4.34 5.73155 3.36846 4.76001 2.17 4.76001C0.971542 4.76001 0 5.73155 0 6.93001C0 8.12847 0.971542 9.10001 2.17 9.10001Z" fill="white"/>
<path d="M11.2305 4.34C12.429 4.34 13.4005 3.36846 13.4005 2.17C13.4005 0.971541 12.429 0 11.2305 0C10.0321 0 9.06055 0.971541 9.06055 2.17C9.06055 3.36846 10.0321 4.34 11.2305 4.34Z" fill="white"/>
<path d="M7.07059 12.53C5.50059 12.19 4.20059 11.19 3.46059 9.78003C2.88059 10.04 2.23059 10.12 1.60059 10.01C2.49059 12.2 4.38059 13.78 6.70059 14.28C7.21059 14.39 7.73059 14.44 8.24059 14.44C7.84059 13.92 7.62059 13.28 7.60059 12.62C7.42059 12.6 7.24059 12.57 7.07059 12.53Z" fill="white"/>
<path d="M10.7403 14.71C11.9388 14.71 12.9103 13.7385 12.9103 12.54C12.9103 11.3415 11.9388 10.37 10.7403 10.37C9.54185 10.37 8.57031 11.3415 8.57031 12.54C8.57031 13.7385 9.54185 14.71 10.7403 14.71Z" fill="white"/>
<path d="M13.76 11.74C14.44 10.89 14.91 9.88001 15.14 8.81001C15.54 6.94001 15.17 4.98001 14.11 3.39001C13.86 3.98001 13.43 4.48001 12.89 4.82001C13.48 5.93002 13.66 7.20001 13.39 8.43001C13.26 9.03001 13.03 9.60001 12.71 10.11C13.22 10.53 13.58 11.09 13.75 11.73L13.76 11.74Z" fill="white"/>
<path d="M2 3.82001C2.06 3.82001 2.11 3.82001 2.17 3.82001C2.39 3.82001 2.61 3.84001 2.83 3.89001C3.18 3.97001 3.52 4.10001 3.82 4.29001C4.8 2.88001 6.38 2.04001 8.09 2.01001C8.09 1.85001 8.12 1.68001 8.16 1.52001C8.26 1.05001 8.46 0.620013 8.75 0.250013C6.02 0.0300129 3.36 1.44001 2.01 3.83001L2 3.82001Z" fill="white"/>
</svg>
