<?xml version="1.0" encoding="UTF-8"?>
<svg width="95px" height="22px" viewBox="0 0 95 22" version="1.1" xmlns="http://www.w3.org/2000/svg" xmlns:xlink="http://www.w3.org/1999/xlink">
    <title>logo-white-full</title>
    <g id="Page-1" stroke="none" stroke-width="1" fill="none" fill-rule="evenodd">
        <g id="logo-white-full" fill="#FFFFFF" fill-rule="nonzero">
            <polygon id="Path" points="8.2969 15.9302 8.2969 17.1602 0.0669 17.1602 0.0669 2.6802 1.4869 2.6802 1.4869 15.9202 8.2969 15.9202"></polygon>
            <path d="M14.0471,6.1101 C14.7571,6.1101 15.3571,6.2101 15.8571,6.4101 C16.3571,6.6101 16.7471,6.8901 17.0571,7.2401 C17.3671,7.6001 17.5871,8.0201 17.7271,8.5001 C17.8671,8.9901 17.9371,9.5201 17.9371,10.0901 L17.9371,16.9001 C17.7971,16.9401 17.5971,16.9901 17.3271,17.0401 C17.0671,17.0901 16.7571,17.1401 16.4071,17.2001 C16.0571,17.2601 15.6771,17.3001 15.2471,17.3401 C14.8271,17.3701 14.3871,17.3901 13.9371,17.3901 C13.3671,17.3901 12.8371,17.3301 12.3571,17.2001 C11.8771,17.0701 11.4571,16.8801 11.1071,16.6001 C10.7571,16.3301 10.4771,15.9801 10.2771,15.5601 C10.0771,15.1401 9.9771,14.6201 9.9771,14.0001 C9.9771,13.3801 10.0871,12.9101 10.3071,12.5001 C10.5271,12.0901 10.8471,11.7401 11.2471,11.4701 C11.6471,11.2001 12.1271,11.0001 12.6871,10.8801 C13.2471,10.7501 13.8471,10.6901 14.5071,10.6901 C14.7071,10.6901 14.9071,10.7001 15.1271,10.7201 C15.3471,10.7401 15.5471,10.7701 15.7571,10.8001 C15.9571,10.8301 16.1371,10.8701 16.2771,10.9001 C16.4271,10.9301 16.5271,10.9701 16.5771,10.9901 L16.5771,10.3201 C16.5771,9.9401 16.5471,9.5801 16.4971,9.2201 C16.4371,8.8701 16.3171,8.5501 16.1271,8.2601 C15.9371,7.9701 15.6771,7.7401 15.3371,7.5701 C14.9971,7.4001 14.5471,7.3101 13.9871,7.3101 C13.1971,7.3101 12.5971,7.3701 12.2071,7.4801 C11.8171,7.5901 11.5371,7.6801 11.3471,7.7501 L11.1571,6.5601 C11.3971,6.4501 11.7571,6.3401 12.2571,6.2501 C12.7471,6.1501 13.3471,6.1001 14.0471,6.1001 L14.0471,6.1101 Z M14.1671,16.1801 C14.6971,16.1801 15.1571,16.1601 15.5571,16.1301 C15.9571,16.1001 16.2871,16.0501 16.5671,15.9901 L16.5671,12.1901 C16.4171,12.1201 16.1671,12.0501 15.8371,11.9701 C15.5071,11.8901 15.0471,11.8501 14.4571,11.8501 C14.1271,11.8501 13.7771,11.8701 13.4171,11.9201 C13.0571,11.9701 12.7171,12.0701 12.4171,12.2301 C12.1071,12.3901 11.8571,12.6101 11.6671,12.8901 C11.4671,13.1701 11.3771,13.5401 11.3771,14.0001 C11.3771,14.4001 11.4471,14.7501 11.5771,15.0201 C11.7071,15.3001 11.8971,15.5201 12.1371,15.6901 C12.3771,15.8601 12.6771,15.9801 13.0171,16.0601 C13.3571,16.1401 13.7471,16.1801 14.1771,16.1801 L14.1671,16.1801 Z" id="Shape"></path>
            <path d="M21.2471,6.7404 C21.6471,6.6304 22.1971,6.5004 22.8771,6.3604 C23.5571,6.2204 24.3971,6.1504 25.3871,6.1504 C26.2071,6.1504 26.8971,6.2704 27.4471,6.5104 C27.9971,6.7504 28.4371,7.0804 28.7671,7.5204 C29.0971,7.9604 29.3271,8.4804 29.4671,9.1004 C29.6071,9.7104 29.6771,10.3904 29.6771,11.1304 L29.6771,17.1704 L28.3171,17.1704 L28.3171,11.5704 C28.3171,10.8004 28.2671,10.1604 28.1571,9.6304 C28.0471,9.1004 27.8771,8.6704 27.6371,8.3404 C27.3971,8.0104 27.0771,7.7704 26.6771,7.6204 C26.2771,7.4704 25.7871,7.4004 25.1871,7.4004 C24.5471,7.4004 23.9971,7.4404 23.5271,7.5004 C23.0571,7.5704 22.7571,7.6304 22.6171,7.6904 L22.6171,17.1704 L21.2571,17.1704 L21.2571,6.7504 L21.2471,6.7404 Z" id="Path"></path>
            <path d="M41.5969,16.8302 C41.1969,16.9702 40.6769,17.1002 40.0469,17.2302 C39.4169,17.3602 38.6269,17.4202 37.6669,17.4202 C36.8769,17.4202 36.1569,17.2902 35.5069,17.0302 C34.8569,16.7702 34.2969,16.4002 33.8369,15.9102 C33.3669,15.4202 33.0069,14.8302 32.7469,14.1302 C32.4869,13.4302 32.3569,12.6502 32.3569,11.7702 C32.3569,10.9502 32.4669,10.1902 32.6769,9.5002 C32.8969,8.8102 33.2069,8.2102 33.6269,7.7102 C34.0469,7.2102 34.5569,6.8202 35.1669,6.5402 C35.7769,6.2602 36.4669,6.1202 37.2469,6.1202 C37.9569,6.1202 38.5769,6.2202 39.0969,6.4202 C39.6169,6.6202 39.9969,6.8102 40.2369,6.9902 L40.2369,1.1802 L41.5969,0.9302 L41.5969,16.8102 L41.5969,16.8302 Z M40.2369,8.3302 C40.1169,8.2302 39.9569,8.1302 39.7669,8.0202 C39.5769,7.9102 39.3569,7.8002 39.1069,7.7102 C38.8569,7.6102 38.5869,7.5302 38.2969,7.4702 C38.0069,7.4102 37.6969,7.3802 37.3769,7.3802 C36.7069,7.3802 36.1469,7.5002 35.6969,7.7402 C35.2469,7.9802 34.8769,8.2902 34.5969,8.6902 C34.3169,9.0902 34.1169,9.5502 33.9869,10.0902 C33.8569,10.6302 33.7969,11.1902 33.7969,11.7902 C33.7969,13.2102 34.1569,14.3002 34.8669,15.0602 C35.5769,15.8202 36.5169,16.2002 37.6869,16.2002 C38.3569,16.2002 38.8969,16.1702 39.3069,16.1102 C39.7169,16.0502 40.0269,15.9802 40.2369,15.9102 L40.2369,8.3502 L40.2369,8.3302 Z" id="Shape"></path>
            <path d="M47.2169,16.2001 C47.9969,16.2001 48.6369,16.0701 49.1469,15.8101 C49.6569,15.5501 49.9069,15.1201 49.9069,14.5001 C49.9069,14.2101 49.8669,13.9601 49.7669,13.7501 C49.6769,13.5401 49.5269,13.3501 49.3169,13.1901 C49.1069,13.0301 48.8369,12.8601 48.4869,12.7101 C48.1469,12.5601 47.7269,12.3801 47.2269,12.1701 C46.8269,12.0001 46.4369,11.8301 46.0769,11.6601 C45.7169,11.4901 45.3969,11.2801 45.1169,11.0501 C44.8369,10.8201 44.6169,10.5501 44.4469,10.2301 C44.2769,9.9101 44.1969,9.5201 44.1969,9.0601 C44.1969,8.1801 44.5269,7.4701 45.1869,6.9301 C45.8469,6.3901 46.7569,6.1201 47.9169,6.1201 C48.6569,6.1201 49.2669,6.1801 49.7469,6.3101 C50.2269,6.4401 50.5669,6.5501 50.7569,6.6401 L50.4469,7.8501 C50.2769,7.7701 49.9969,7.6601 49.5969,7.5201 C49.1969,7.3801 48.6169,7.3101 47.8569,7.3101 C47.5469,7.3101 47.2569,7.3401 46.9869,7.4001 C46.7169,7.4601 46.4769,7.5601 46.2669,7.6901 C46.0569,7.8201 45.8869,7.9901 45.7669,8.1901 C45.6469,8.3901 45.5769,8.6401 45.5769,8.9301 C45.5769,9.2201 45.6369,9.4701 45.7469,9.6801 C45.8569,9.8901 46.0169,10.0701 46.2369,10.2401 C46.4569,10.4001 46.7169,10.5501 47.0269,10.6901 C47.3369,10.8301 47.6969,10.9801 48.1069,11.1501 C48.5269,11.3201 48.9269,11.4901 49.3069,11.6601 C49.6869,11.8301 50.0269,12.0401 50.3169,12.2801 C50.6069,12.5201 50.8469,12.8201 51.0269,13.1601 C51.2069,13.5001 51.2969,13.9301 51.2969,14.4401 C51.2969,15.4201 50.9269,16.1501 50.1969,16.6501 C49.4669,17.1501 48.4669,17.4001 47.1969,17.4001 C46.2469,17.4001 45.5269,17.3201 45.0269,17.1601 C44.5269,17.0001 44.1969,16.8801 44.0269,16.7901 L44.3769,15.5601 C44.3769,15.5601 44.5069,15.6301 44.6469,15.7001 C44.7869,15.7601 44.9769,15.8301 45.2069,15.9101 C45.4469,15.9901 45.7269,16.0501 46.0569,16.1101 C46.3869,16.1701 46.7669,16.1901 47.1969,16.1901 L47.2169,16.2001 Z" id="Path"></path>
            <path d="M58.4069,17.3903 C57.5669,17.3903 56.8369,17.2603 56.1969,16.9903 C55.5569,16.7303 55.0269,16.3503 54.5969,15.8503 C54.1669,15.3503 53.8469,14.7603 53.6269,14.0703 C53.4069,13.3803 53.2969,12.6203 53.2969,11.7803 C53.2969,10.9403 53.4169,10.1603 53.6369,9.4603 C53.8669,8.7603 54.1969,8.1703 54.6269,7.6603 C55.0569,7.1503 55.5769,6.7703 56.1969,6.5003 C56.8069,6.2303 57.4969,6.0903 58.2669,6.0903 C58.8469,6.0903 59.3969,6.1403 59.9069,6.2403 C60.4169,6.3403 60.8069,6.4603 61.0869,6.6203 L60.7269,7.7903 C60.4469,7.6503 60.1369,7.5403 59.7869,7.4603 C59.4369,7.3803 58.9769,7.3403 58.3869,7.3403 C57.1869,7.3403 56.2769,7.7303 55.6569,8.5003 C55.0369,9.2703 54.7269,10.3703 54.7269,11.7903 C54.7269,12.4303 54.7969,13.0203 54.9369,13.5503 C55.0769,14.0903 55.3069,14.5503 55.6169,14.9303 C55.9269,15.3103 56.3369,15.6103 56.8269,15.8303 C57.3169,16.0503 57.9269,16.1503 58.6369,16.1503 C59.2169,16.1503 59.7169,16.0803 60.1069,15.9503 C60.5069,15.8203 60.7969,15.7003 60.9769,15.6103 L61.2669,16.7803 C61.0169,16.9203 60.6269,17.0603 60.0869,17.1903 C59.5469,17.3203 58.9869,17.3903 58.4069,17.3903 Z" id="Path"></path>
            <path d="M66.9367,6.1101 C67.6467,6.1101 68.2467,6.2101 68.7467,6.4101 C69.2467,6.6101 69.6367,6.8901 69.9467,7.2401 C70.2567,7.6001 70.4767,8.0201 70.6167,8.5001 C70.7567,8.9901 70.8267,9.5201 70.8267,10.0901 L70.8267,16.9001 C70.6867,16.9401 70.4867,16.9901 70.2167,17.0401 C69.9567,17.0901 69.6467,17.1401 69.2967,17.2001 C68.9467,17.2601 68.5667,17.3001 68.1367,17.3401 C67.7167,17.3701 67.2767,17.3901 66.8267,17.3901 C66.2567,17.3901 65.7267,17.3301 65.2467,17.2001 C64.7667,17.0701 64.3467,16.8801 63.9967,16.6001 C63.6467,16.3301 63.3667,15.9801 63.1667,15.5601 C62.9667,15.1401 62.8667,14.6201 62.8667,14.0001 C62.8667,13.3801 62.9767,12.9101 63.1967,12.5001 C63.4167,12.0901 63.7367,11.7401 64.1367,11.4701 C64.5367,11.2001 65.0167,11.0001 65.5767,10.8801 C66.1367,10.7501 66.7367,10.6901 67.3967,10.6901 C67.5967,10.6901 67.7967,10.7001 68.0167,10.7201 C68.2367,10.7401 68.4367,10.7701 68.6467,10.8001 C68.8467,10.8301 69.0267,10.8701 69.1667,10.9001 C69.3167,10.9301 69.4167,10.9701 69.4667,10.9901 L69.4667,10.3201 C69.4667,9.9401 69.4367,9.5801 69.3867,9.2201 C69.3267,8.8701 69.2067,8.5501 69.0167,8.2601 C68.8267,7.9701 68.5667,7.7401 68.2267,7.5701 C67.8867,7.4001 67.4367,7.3101 66.8767,7.3101 C66.0867,7.3101 65.4867,7.3701 65.0967,7.4801 C64.7067,7.5901 64.4267,7.6801 64.2367,7.7501 L64.0467,6.5601 C64.2867,6.4501 64.6467,6.3401 65.1467,6.2501 C65.6367,6.1501 66.2367,6.1001 66.9367,6.1001 L66.9367,6.1101 Z M67.0567,16.1801 C67.5867,16.1801 68.0467,16.1601 68.4467,16.1301 C68.8467,16.1001 69.1767,16.0501 69.4567,15.9901 L69.4567,12.1901 C69.3067,12.1201 69.0567,12.0501 68.7267,11.9701 C68.3967,11.8901 67.9367,11.8501 67.3467,11.8501 C67.0167,11.8501 66.6667,11.8701 66.3067,11.9201 C65.9467,11.9701 65.6067,12.0701 65.3067,12.2301 C64.9967,12.3901 64.7467,12.6101 64.5567,12.8901 C64.3567,13.1701 64.2667,13.5401 64.2667,14.0001 C64.2667,14.4001 64.3367,14.7501 64.4667,15.0201 C64.5967,15.3001 64.7867,15.5201 65.0267,15.6901 C65.2667,15.8601 65.5667,15.9801 65.9067,16.0601 C66.2467,16.1401 66.6367,16.1801 67.0667,16.1801 L67.0567,16.1801 Z" id="Shape"></path>
            <path d="M75.497,21.0201 L74.137,21.0201 L74.137,6.7301 C74.537,6.5901 75.057,6.4601 75.677,6.3301 C76.307,6.2101 77.097,6.1401 78.057,6.1401 C78.847,6.1401 79.567,6.2701 80.217,6.5301 C80.867,6.7901 81.417,7.1601 81.887,7.6501 C82.357,8.1401 82.717,8.7301 82.977,9.4301 C83.237,10.1301 83.367,10.9101 83.367,11.7901 C83.367,12.6101 83.257,13.3701 83.047,14.0601 C82.827,14.7501 82.517,15.3401 82.097,15.8401 C81.677,16.3401 81.167,16.7201 80.557,17.0001 C79.947,17.2801 79.257,17.4201 78.477,17.4201 C77.767,17.4201 77.147,17.3201 76.627,17.1201 C76.107,16.9201 75.727,16.7301 75.487,16.5401 L75.487,21.0301 L75.497,21.0201 Z M75.497,15.2101 C75.617,15.3101 75.777,15.4101 75.967,15.5201 C76.157,15.6301 76.377,15.7401 76.627,15.8301 C76.877,15.9301 77.147,16.0101 77.437,16.0701 C77.727,16.1301 78.037,16.1601 78.357,16.1601 C79.027,16.1601 79.587,16.0401 80.037,15.8201 C80.487,15.5901 80.857,15.2801 81.137,14.8801 C81.417,14.4801 81.617,14.0201 81.747,13.4801 C81.867,12.9401 81.937,12.3801 81.937,11.7801 C81.937,10.3601 81.577,9.2701 80.867,8.5101 C80.157,7.7501 79.217,7.3701 78.047,7.3701 C77.377,7.3701 76.837,7.4001 76.427,7.4601 C76.017,7.5201 75.707,7.5901 75.497,7.6601 L75.497,15.2001 L75.497,15.2101 Z" id="Shape"></path>
            <path d="M85.597,11.7501 C85.597,10.8001 85.737,9.9801 86.007,9.2701 C86.277,8.5701 86.637,7.9801 87.067,7.5101 C87.507,7.0401 88.007,6.6801 88.567,6.4601 C89.127,6.2301 89.707,6.1201 90.307,6.1201 C91.627,6.1201 92.687,6.5501 93.467,7.4101 C94.247,8.2701 94.647,9.6001 94.647,11.4001 C94.647,11.5101 94.647,11.6201 94.637,11.7301 C94.627,11.8401 94.617,11.9501 94.607,12.0401 L87.027,12.0401 C87.067,13.3601 87.397,14.3801 88.007,15.0901 C88.617,15.8001 89.597,16.1601 90.927,16.1601 C91.667,16.1601 92.247,16.0901 92.677,15.9501 C93.107,15.8101 93.427,15.6901 93.617,15.6001 L93.867,16.7701 C93.667,16.8801 93.307,17.0101 92.767,17.1701 C92.227,17.3301 91.597,17.4001 90.877,17.4001 C89.927,17.4001 89.127,17.2601 88.457,16.9801 C87.787,16.7001 87.237,16.3101 86.807,15.8101 C86.377,15.3101 86.057,14.7101 85.867,14.0201 C85.667,13.3301 85.577,12.5801 85.577,11.7501 L85.597,11.7501 Z M93.267,10.8901 C93.237,9.7601 92.977,8.8901 92.477,8.2601 C91.977,7.6301 91.267,7.3201 90.347,7.3201 C89.857,7.3201 89.427,7.4201 89.037,7.6101 C88.647,7.8001 88.317,8.0701 88.037,8.3901 C87.757,8.7101 87.527,9.1001 87.367,9.5301 C87.207,9.9601 87.117,10.4101 87.087,10.8901 L93.267,10.8901 Z" id="Shape"></path>
        </g>
    </g>
</svg>