<svg width="122" height="34" viewBox="0 0 122 34" fill="none" xmlns="http://www.w3.org/2000/svg">
<g clip-path="url(#clip0_1_7232)">
<path d="M35.2969 27.9302V29.1602H27.0669V14.6802H28.4869V27.9202H35.2969V27.9302Z" fill="white"/>
<path d="M41.0471 18.1101C41.7571 18.1101 42.3571 18.2101 42.8571 18.4101C43.3571 18.6101 43.7471 18.8901 44.0571 19.2401C44.3671 19.6001 44.5871 20.0201 44.7271 20.5001C44.8671 20.9901 44.9371 21.5201 44.9371 22.0901V28.9001C44.7971 28.9401 44.5971 28.9901 44.3271 29.0401C44.0671 29.0901 43.7571 29.1401 43.4071 29.2001C43.0571 29.2601 42.6771 29.3001 42.2471 29.3401C41.8271 29.3701 41.3871 29.3901 40.9371 29.3901C40.3671 29.3901 39.8371 29.3301 39.3571 29.2001C38.8771 29.0701 38.4571 28.8801 38.1071 28.6001C37.7571 28.3301 37.4771 27.9801 37.2771 27.5601C37.0771 27.1401 36.9771 26.6201 36.9771 26.0001C36.9771 25.3801 37.0871 24.9101 37.3071 24.5001C37.5271 24.0901 37.8471 23.7401 38.2471 23.4701C38.6471 23.2001 39.1271 23.0001 39.6871 22.8801C40.2471 22.7501 40.8471 22.6901 41.5071 22.6901C41.7071 22.6901 41.9071 22.7001 42.1271 22.7201C42.3471 22.7401 42.5471 22.7701 42.7571 22.8001C42.9571 22.8301 43.1371 22.8701 43.2771 22.9001C43.4271 22.9301 43.5271 22.9701 43.5771 22.9901V22.3201C43.5771 21.9401 43.5471 21.5801 43.4971 21.2201C43.4371 20.8701 43.3171 20.5501 43.1271 20.2601C42.9371 19.9701 42.6771 19.7401 42.3371 19.5701C41.9971 19.4001 41.5471 19.3101 40.9871 19.3101C40.1971 19.3101 39.5971 19.3701 39.2071 19.4801C38.8171 19.5901 38.5371 19.6801 38.3471 19.7501L38.1571 18.5601C38.3971 18.4501 38.7571 18.3401 39.2571 18.2501C39.7471 18.1501 40.3471 18.1001 41.0471 18.1001V18.1101ZM41.1671 28.1801C41.6971 28.1801 42.1571 28.1601 42.5571 28.1301C42.9571 28.1001 43.2871 28.0501 43.5671 27.9901V24.1901C43.4171 24.1201 43.1671 24.0501 42.8371 23.9701C42.5071 23.8901 42.0471 23.8501 41.4571 23.8501C41.1271 23.8501 40.7771 23.8701 40.4171 23.9201C40.0571 23.9701 39.7171 24.0701 39.4171 24.2301C39.1071 24.3901 38.8571 24.6101 38.6671 24.8901C38.4671 25.1701 38.3771 25.5401 38.3771 26.0001C38.3771 26.4001 38.4471 26.7501 38.5771 27.0201C38.7071 27.3001 38.8971 27.5201 39.1371 27.6901C39.3771 27.8601 39.6771 27.9801 40.0171 28.0601C40.3571 28.1401 40.7471 28.1801 41.1771 28.1801H41.1671Z" fill="white"/>
<path d="M48.2471 18.7404C48.6471 18.6304 49.1971 18.5004 49.8771 18.3604C50.5571 18.2204 51.3971 18.1504 52.3871 18.1504C53.2071 18.1504 53.8971 18.2704 54.4471 18.5104C54.9971 18.7504 55.4371 19.0804 55.7671 19.5204C56.0971 19.9604 56.3271 20.4804 56.4671 21.1004C56.6071 21.7104 56.6771 22.3904 56.6771 23.1304V29.1704H55.3171V23.5704C55.3171 22.8004 55.2671 22.1604 55.1571 21.6304C55.0471 21.1004 54.8771 20.6704 54.6371 20.3404C54.3971 20.0104 54.0771 19.7704 53.6771 19.6204C53.2771 19.4704 52.7871 19.4004 52.1871 19.4004C51.5471 19.4004 50.9971 19.4404 50.5271 19.5004C50.0571 19.5704 49.7571 19.6304 49.6171 19.6904V29.1704H48.2571V18.7504L48.2471 18.7404Z" fill="white"/>
<path d="M68.5969 28.8302C68.1969 28.9702 67.6769 29.1002 67.0469 29.2302C66.4169 29.3602 65.6269 29.4202 64.6669 29.4202C63.8769 29.4202 63.1569 29.2902 62.5069 29.0302C61.8569 28.7702 61.2969 28.4002 60.8369 27.9102C60.3669 27.4202 60.0069 26.8302 59.7469 26.1302C59.4869 25.4302 59.3569 24.6502 59.3569 23.7702C59.3569 22.9502 59.4669 22.1902 59.6769 21.5002C59.8969 20.8102 60.2069 20.2102 60.6269 19.7102C61.0469 19.2102 61.5569 18.8202 62.1669 18.5402C62.7769 18.2602 63.4669 18.1202 64.2469 18.1202C64.9569 18.1202 65.5769 18.2202 66.0969 18.4202C66.6169 18.6202 66.9969 18.8102 67.2369 18.9902V13.1802L68.5969 12.9302V28.8102V28.8302ZM67.2369 20.3302C67.1169 20.2302 66.9569 20.1302 66.7669 20.0202C66.5769 19.9102 66.3569 19.8002 66.1069 19.7102C65.8569 19.6102 65.5869 19.5302 65.2969 19.4702C65.0069 19.4102 64.6969 19.3802 64.3769 19.3802C63.7069 19.3802 63.1469 19.5002 62.6969 19.7402C62.2469 19.9802 61.8769 20.2902 61.5969 20.6902C61.3169 21.0902 61.1169 21.5502 60.9869 22.0902C60.8569 22.6302 60.7969 23.1902 60.7969 23.7902C60.7969 25.2102 61.1569 26.3002 61.8669 27.0602C62.5769 27.8202 63.5169 28.2002 64.6869 28.2002C65.3569 28.2002 65.8969 28.1702 66.3069 28.1102C66.7169 28.0502 67.0269 27.9802 67.2369 27.9102V20.3502V20.3302Z" fill="white"/>
<path d="M74.2169 28.2001C74.9969 28.2001 75.6369 28.0701 76.1469 27.8101C76.6569 27.5501 76.9069 27.1201 76.9069 26.5001C76.9069 26.2101 76.8669 25.9601 76.7669 25.7501C76.6769 25.5401 76.5269 25.3501 76.3169 25.1901C76.1069 25.0301 75.8369 24.8601 75.4869 24.7101C75.1469 24.5601 74.7269 24.3801 74.2269 24.1701C73.8269 24.0001 73.4369 23.8301 73.0769 23.6601C72.7169 23.4901 72.3969 23.2801 72.1169 23.0501C71.8369 22.8201 71.6169 22.5501 71.4469 22.2301C71.2769 21.9101 71.1969 21.5201 71.1969 21.0601C71.1969 20.1801 71.5269 19.4701 72.1869 18.9301C72.8469 18.3901 73.7569 18.1201 74.9169 18.1201C75.6569 18.1201 76.2669 18.1801 76.7469 18.3101C77.2269 18.4401 77.5669 18.5501 77.7569 18.6401L77.4469 19.8501C77.2769 19.7701 76.9969 19.6601 76.5969 19.5201C76.1969 19.3801 75.6169 19.3101 74.8569 19.3101C74.5469 19.3101 74.2569 19.3401 73.9869 19.4001C73.7169 19.4601 73.4769 19.5601 73.2669 19.6901C73.0569 19.8201 72.8869 19.9901 72.7669 20.1901C72.6469 20.3901 72.5769 20.6401 72.5769 20.9301C72.5769 21.2201 72.6369 21.4701 72.7469 21.6801C72.8569 21.8901 73.0169 22.0701 73.2369 22.2401C73.4569 22.4001 73.7169 22.5501 74.0269 22.6901C74.3369 22.8301 74.6969 22.9801 75.1069 23.1501C75.5269 23.3201 75.9269 23.4901 76.3069 23.6601C76.6869 23.8301 77.0269 24.0401 77.3169 24.2801C77.6069 24.5201 77.8469 24.8201 78.0269 25.1601C78.2069 25.5001 78.2969 25.9301 78.2969 26.4401C78.2969 27.4201 77.9269 28.1501 77.1969 28.6501C76.4669 29.1501 75.4669 29.4001 74.1969 29.4001C73.2469 29.4001 72.5269 29.3201 72.0269 29.1601C71.5269 29.0001 71.1969 28.8801 71.0269 28.7901L71.3769 27.5601C71.3769 27.5601 71.5069 27.6301 71.6469 27.7001C71.7869 27.7601 71.9769 27.8301 72.2069 27.9101C72.4469 27.9901 72.7269 28.0501 73.0569 28.1101C73.3869 28.1701 73.7669 28.1901 74.1969 28.1901L74.2169 28.2001Z" fill="white"/>
<path d="M85.4069 29.3903C84.5669 29.3903 83.8369 29.2603 83.1969 28.9903C82.5569 28.7303 82.0269 28.3503 81.5969 27.8503C81.1669 27.3503 80.8469 26.7603 80.6269 26.0703C80.4069 25.3803 80.2969 24.6203 80.2969 23.7803C80.2969 22.9403 80.4169 22.1603 80.6369 21.4603C80.8669 20.7603 81.1969 20.1703 81.6269 19.6603C82.0569 19.1503 82.5769 18.7703 83.1969 18.5003C83.8069 18.2303 84.4969 18.0903 85.2669 18.0903C85.8469 18.0903 86.3969 18.1403 86.9069 18.2403C87.4169 18.3403 87.8069 18.4603 88.0869 18.6203L87.7269 19.7903C87.4469 19.6503 87.1369 19.5403 86.7869 19.4603C86.4369 19.3803 85.9769 19.3403 85.3869 19.3403C84.1869 19.3403 83.2769 19.7303 82.6569 20.5003C82.0369 21.2703 81.7269 22.3703 81.7269 23.7903C81.7269 24.4303 81.7969 25.0203 81.9369 25.5503C82.0769 26.0903 82.3069 26.5503 82.6169 26.9303C82.9269 27.3103 83.3369 27.6103 83.8269 27.8303C84.3169 28.0503 84.9269 28.1503 85.6369 28.1503C86.2169 28.1503 86.7169 28.0803 87.1069 27.9503C87.5069 27.8203 87.7969 27.7003 87.9769 27.6103L88.2669 28.7803C88.0169 28.9203 87.6269 29.0603 87.0869 29.1903C86.5469 29.3203 85.9869 29.3903 85.4069 29.3903Z" fill="white"/>
<path d="M93.9367 18.1101C94.6467 18.1101 95.2467 18.2101 95.7467 18.4101C96.2467 18.6101 96.6367 18.8901 96.9467 19.2401C97.2567 19.6001 97.4767 20.0201 97.6167 20.5001C97.7567 20.9901 97.8267 21.5201 97.8267 22.0901V28.9001C97.6867 28.9401 97.4867 28.9901 97.2167 29.0401C96.9567 29.0901 96.6467 29.1401 96.2967 29.2001C95.9467 29.2601 95.5667 29.3001 95.1367 29.3401C94.7167 29.3701 94.2767 29.3901 93.8267 29.3901C93.2567 29.3901 92.7267 29.3301 92.2467 29.2001C91.7667 29.0701 91.3467 28.8801 90.9967 28.6001C90.6467 28.3301 90.3667 27.9801 90.1667 27.5601C89.9667 27.1401 89.8667 26.6201 89.8667 26.0001C89.8667 25.3801 89.9767 24.9101 90.1967 24.5001C90.4167 24.0901 90.7367 23.7401 91.1367 23.4701C91.5367 23.2001 92.0167 23.0001 92.5767 22.8801C93.1367 22.7501 93.7367 22.6901 94.3967 22.6901C94.5967 22.6901 94.7967 22.7001 95.0167 22.7201C95.2367 22.7401 95.4367 22.7701 95.6467 22.8001C95.8467 22.8301 96.0267 22.8701 96.1667 22.9001C96.3167 22.9301 96.4167 22.9701 96.4667 22.9901V22.3201C96.4667 21.9401 96.4367 21.5801 96.3867 21.2201C96.3267 20.8701 96.2067 20.5501 96.0167 20.2601C95.8267 19.9701 95.5667 19.7401 95.2267 19.5701C94.8867 19.4001 94.4367 19.3101 93.8767 19.3101C93.0867 19.3101 92.4867 19.3701 92.0967 19.4801C91.7067 19.5901 91.4267 19.6801 91.2367 19.7501L91.0467 18.5601C91.2867 18.4501 91.6467 18.3401 92.1467 18.2501C92.6367 18.1501 93.2367 18.1001 93.9367 18.1001V18.1101ZM94.0567 28.1801C94.5867 28.1801 95.0467 28.1601 95.4467 28.1301C95.8467 28.1001 96.1767 28.0501 96.4567 27.9901V24.1901C96.3067 24.1201 96.0567 24.0501 95.7267 23.9701C95.3967 23.8901 94.9367 23.8501 94.3467 23.8501C94.0167 23.8501 93.6667 23.8701 93.3067 23.9201C92.9467 23.9701 92.6067 24.0701 92.3067 24.2301C91.9967 24.3901 91.7467 24.6101 91.5567 24.8901C91.3567 25.1701 91.2667 25.5401 91.2667 26.0001C91.2667 26.4001 91.3367 26.7501 91.4667 27.0201C91.5967 27.3001 91.7867 27.5201 92.0267 27.6901C92.2667 27.8601 92.5667 27.9801 92.9067 28.0601C93.2467 28.1401 93.6367 28.1801 94.0667 28.1801H94.0567Z" fill="white"/>
<path d="M102.497 33.0201H101.137V18.7301C101.537 18.5901 102.057 18.4601 102.677 18.3301C103.307 18.2101 104.097 18.1401 105.057 18.1401C105.847 18.1401 106.567 18.2701 107.217 18.5301C107.867 18.7901 108.417 19.1601 108.887 19.6501C109.357 20.1401 109.717 20.7301 109.977 21.4301C110.237 22.1301 110.367 22.9101 110.367 23.7901C110.367 24.6101 110.257 25.3701 110.047 26.0601C109.827 26.7501 109.517 27.3401 109.097 27.8401C108.677 28.3401 108.167 28.7201 107.557 29.0001C106.947 29.2801 106.257 29.4201 105.477 29.4201C104.767 29.4201 104.147 29.3201 103.627 29.1201C103.107 28.9201 102.727 28.7301 102.487 28.5401V33.0301L102.497 33.0201ZM102.497 27.2101C102.617 27.3101 102.777 27.4101 102.967 27.5201C103.157 27.6301 103.377 27.7401 103.627 27.8301C103.877 27.9301 104.147 28.0101 104.437 28.0701C104.727 28.1301 105.037 28.1601 105.357 28.1601C106.027 28.1601 106.587 28.0401 107.037 27.8201C107.487 27.5901 107.857 27.2801 108.137 26.8801C108.417 26.4801 108.617 26.0201 108.747 25.4801C108.867 24.9401 108.937 24.3801 108.937 23.7801C108.937 22.3601 108.577 21.2701 107.867 20.5101C107.157 19.7501 106.217 19.3701 105.047 19.3701C104.377 19.3701 103.837 19.4001 103.427 19.4601C103.017 19.5201 102.707 19.5901 102.497 19.6601V27.2001V27.2101Z" fill="white"/>
<path d="M112.597 23.7501C112.597 22.8001 112.737 21.9801 113.007 21.2701C113.277 20.5701 113.637 19.9801 114.067 19.5101C114.507 19.0401 115.007 18.6801 115.567 18.4601C116.127 18.2301 116.707 18.1201 117.307 18.1201C118.627 18.1201 119.687 18.5501 120.467 19.4101C121.247 20.2701 121.647 21.6001 121.647 23.4001C121.647 23.5101 121.647 23.6201 121.637 23.7301C121.627 23.8401 121.617 23.9501 121.607 24.0401H114.027C114.067 25.3601 114.397 26.3801 115.007 27.0901C115.617 27.8001 116.597 28.1601 117.927 28.1601C118.667 28.1601 119.247 28.0901 119.677 27.9501C120.107 27.8101 120.427 27.6901 120.617 27.6001L120.867 28.7701C120.667 28.8801 120.307 29.0101 119.767 29.1701C119.227 29.3301 118.597 29.4001 117.877 29.4001C116.927 29.4001 116.127 29.2601 115.457 28.9801C114.787 28.7001 114.237 28.3101 113.807 27.8101C113.377 27.3101 113.057 26.7101 112.867 26.0201C112.667 25.3301 112.577 24.5801 112.577 23.7501H112.597ZM120.267 22.8901C120.237 21.7601 119.977 20.8901 119.477 20.2601C118.977 19.6301 118.267 19.3201 117.347 19.3201C116.857 19.3201 116.427 19.4201 116.037 19.6101C115.647 19.8001 115.317 20.0701 115.037 20.3901C114.757 20.7101 114.527 21.1001 114.367 21.5301C114.207 21.9601 114.117 22.4101 114.087 22.8901H120.267Z" fill="white"/>
<path d="M21.5 0H0.5V32H21.5V0Z" fill="#E95420"/>
<path d="M16.39 25.5901H10.08C10.08 25.5901 10.04 25.5901 10.03 25.6101C10.02 25.6201 10.01 25.6401 10.01 25.6601V26.6901C10.01 26.6901 10.05 26.7601 10.09 26.7601H15.18V27.8201H8.97002V14.9001C8.97002 14.9001 8.94002 14.8301 8.90002 14.8301H5.59002C5.59002 14.8301 5.52002 14.8601 5.52002 14.9001V28.9201C5.52002 28.9201 5.55002 28.9901 5.59002 28.9901H6.66002C6.66002 28.9901 6.70002 28.9901 6.71002 28.9701C6.72002 28.9501 6.73002 28.9401 6.73002 28.9201V15.9401H7.81002L7.77002 28.8501C7.77002 28.8501 7.77002 28.8901 7.79002 28.9001C7.80002 28.9101 7.82002 28.9201 7.84002 28.9201H16.39C16.39 28.9201 16.46 28.8901 16.46 28.8501V25.6601C16.46 25.6601 16.43 25.5901 16.39 25.5901Z" fill="white"/>
</g>
<defs>
<clipPath id="clip0_1_7232">
<rect width="121" height="34" fill="white" transform="translate(0.5)"/>
</clipPath>
</defs>
</svg>
