<svg width="39" height="7" viewBox="0 0 39 7" fill="none" xmlns="http://www.w3.org/2000/svg">
<path d="M4.75825 6.90281C4.3681 6.90281 4.006 6.83311 3.67195 6.69286C3.33705 6.55346 3.04635 6.34946 2.799 6.08171C2.55165 5.81396 2.357 5.48416 2.2142 5.09146C2.0714 4.69876 2 4.24911 2 3.74336C2 3.23761 2.07735 2.78796 2.2312 2.39526C2.38505 2.00256 2.59075 1.67276 2.8466 1.40501C3.10245 1.13726 3.3991 0.934962 3.73655 0.798112C4.074 0.661262 4.4259 0.593262 4.79225 0.593262C5.0192 0.593262 5.22575 0.607712 5.4119 0.636612C5.59805 0.665512 5.76125 0.702062 5.90065 0.745412C6.04005 0.788762 6.1599 0.832962 6.2585 0.876312C6.3571 0.919662 6.43275 0.959612 6.48545 0.994462L6.29335 1.50956C6.148 1.42201 5.9627 1.33616 5.73915 1.25201C5.51475 1.16786 5.23765 1.12536 4.90615 1.12536C4.5279 1.12536 4.1981 1.18911 3.9159 1.31746C3.6337 1.44581 3.39655 1.62601 3.20445 1.85891C3.01235 2.09181 2.8687 2.36806 2.77265 2.68766C2.6766 3.00811 2.629 3.36256 2.629 3.75271C2.629 4.14286 2.6766 4.51601 2.77265 4.83901C2.8687 5.16201 3.0098 5.43656 3.19595 5.66351C3.3821 5.89046 3.61075 6.06471 3.88105 6.18711C4.15135 6.30951 4.4616 6.37071 4.8101 6.37071C5.1943 6.37071 5.5156 6.33416 5.77485 6.26191C6.03325 6.18881 6.2296 6.11486 6.3639 6.03921L6.52965 6.54496C6.48885 6.57386 6.41915 6.60786 6.32055 6.64526C6.22195 6.68351 6.09615 6.72261 5.9457 6.76341C5.7944 6.80421 5.62015 6.83736 5.4221 6.86371C5.22405 6.89006 5.00305 6.90281 4.7591 6.90281H4.75825Z" fill="white"/>
<path d="M8.9711 2.15479C9.26775 2.15479 9.51936 2.19729 9.7259 2.28144C9.93246 2.36559 10.0999 2.48204 10.2274 2.63078C10.3549 2.77953 10.4484 2.95549 10.5071 3.15864C10.5649 3.36264 10.5946 3.58364 10.5946 3.82164V6.66658C10.536 6.68443 10.4518 6.70314 10.3413 6.72353C10.2308 6.74393 10.1025 6.76604 9.95711 6.78899C9.81176 6.81193 9.65025 6.83148 9.4726 6.84593C9.29495 6.86038 9.11306 6.86804 8.92691 6.86804C8.68806 6.86804 8.46876 6.84168 8.26816 6.78983C8.06756 6.73713 7.89331 6.65468 7.74456 6.54078C7.59581 6.42773 7.47936 6.28238 7.39521 6.10473C7.31106 5.92708 7.26855 5.71033 7.26855 5.45448C7.26855 5.19863 7.31531 5.00058 7.40796 4.82633C7.50061 4.65209 7.63151 4.50758 7.80066 4.39453C7.96896 4.28148 8.1704 4.19818 8.40245 4.14548C8.63535 4.09278 8.88781 4.06729 9.16151 4.06729C9.24311 4.06729 9.32896 4.07154 9.41906 4.08004C9.50916 4.08854 9.59671 4.10044 9.68086 4.11489C9.76501 4.12934 9.83811 4.14378 9.89931 4.15824C9.96051 4.17268 10.0022 4.18628 10.026 4.19734V3.91769C10.026 3.76044 10.0141 3.60828 9.9911 3.45953C9.96815 3.31078 9.91716 3.17734 9.83811 3.05834C9.75991 2.93934 9.64941 2.84329 9.50661 2.77019C9.36381 2.69709 9.17596 2.66139 8.94391 2.66139C8.61241 2.66139 8.36506 2.68433 8.20186 2.73109C8.03866 2.77784 7.91966 2.81524 7.84401 2.84414L7.76581 2.34689C7.86441 2.30014 8.01741 2.25679 8.22396 2.21599C8.43051 2.17519 8.67871 2.15479 8.97026 2.15479H8.9711ZM9.0238 6.36144C9.2448 6.36144 9.43861 6.35464 9.60436 6.33933C9.77011 6.32488 9.91121 6.30619 10.0277 6.28239V4.69374C9.96391 4.66484 9.8619 4.63424 9.7225 4.60194C9.5831 4.57049 9.391 4.55434 9.1462 4.55434C9.0068 4.55434 8.86061 4.56454 8.71016 4.58494C8.55886 4.60534 8.41945 4.64869 8.2911 4.71584C8.16275 4.78299 8.05821 4.87478 7.97661 4.99039C7.89501 5.10683 7.85421 5.26069 7.85421 5.45279C7.85421 5.62194 7.8814 5.76389 7.9375 5.88034C7.99275 5.99678 8.07096 6.08944 8.17296 6.15999C8.27496 6.22969 8.39651 6.28068 8.53931 6.31298C8.68211 6.34528 8.8436 6.36059 9.0238 6.36059V6.36144Z" fill="white"/>
<path d="M11.9932 2.41655C12.1615 2.3698 12.3884 2.31795 12.674 2.2593C12.9588 2.2015 13.3081 2.17175 13.7212 2.17175C14.0646 2.17175 14.3511 2.22105 14.5806 2.3205C14.8101 2.4191 14.9937 2.5602 15.1305 2.7438C15.2674 2.9274 15.3643 3.1467 15.4229 3.40255C15.4807 3.6584 15.5105 3.9406 15.5105 4.24915V6.7711H14.9435V4.4319C14.9435 4.1123 14.9214 3.84115 14.8781 3.62015C14.8347 3.39915 14.7616 3.21895 14.6596 3.0787C14.5576 2.9393 14.4242 2.839 14.2584 2.7778C14.0927 2.7166 13.8844 2.686 13.6345 2.686C13.3668 2.686 13.1356 2.70045 12.9409 2.72935C12.7463 2.75825 12.6196 2.7846 12.561 2.80755V6.7694H11.994V2.41485L11.9932 2.41655Z" fill="white"/>
<path d="M20.7763 4.52034C20.7763 4.87564 20.7253 5.19864 20.6233 5.48934C20.5213 5.78004 20.3794 6.02738 20.1958 6.23139C20.0122 6.43539 19.7954 6.59349 19.5455 6.70739C19.2956 6.82129 19.0185 6.87739 18.7168 6.87739C18.415 6.87739 18.1379 6.82044 17.888 6.70739C17.6381 6.59434 17.4214 6.43539 17.2378 6.23139C17.0542 6.02824 16.9122 5.78089 16.8102 5.48934C16.7082 5.19864 16.6572 4.87564 16.6572 4.52034C16.6572 4.16504 16.7082 3.84289 16.8102 3.55134C16.9122 3.26064 17.0542 3.01159 17.2378 2.80504C17.4214 2.59849 17.6381 2.43869 17.888 2.32479C18.1379 2.21174 18.4142 2.15479 18.7168 2.15479C19.0194 2.15479 19.2956 2.21174 19.5455 2.32479C19.7954 2.43869 20.0122 2.59849 20.1958 2.80504C20.3794 3.01159 20.5213 3.26064 20.6233 3.55134C20.7253 3.84204 20.7763 4.16504 20.7763 4.52034ZM20.1745 4.52034C20.1745 3.95594 20.0436 3.50629 19.7818 3.17224C19.52 2.83734 19.1647 2.67074 18.7168 2.67074C18.2688 2.67074 17.9135 2.83819 17.6517 3.17224C17.3899 3.50714 17.259 3.95594 17.259 4.52034C17.259 5.08474 17.3899 5.53269 17.6517 5.86419C17.9135 6.19569 18.268 6.36144 18.7168 6.36144C19.1656 6.36144 19.5192 6.19569 19.7818 5.86419C20.0445 5.53269 20.1745 5.08474 20.1745 4.52034Z" fill="white"/>
<path d="M21.9727 2.41655C22.141 2.3698 22.3679 2.31795 22.6535 2.2593C22.9383 2.2015 23.2876 2.17175 23.7007 2.17175C24.0441 2.17175 24.3306 2.22105 24.5601 2.3205C24.7896 2.4191 24.9732 2.5602 25.11 2.7438C25.2469 2.9274 25.3438 3.1467 25.4024 3.40255C25.4602 3.6584 25.49 3.9406 25.49 4.24915V6.7711H24.923V4.4319C24.923 4.1123 24.9009 3.84115 24.8576 3.62015C24.8142 3.39915 24.7411 3.21895 24.6391 3.0787C24.5371 2.9393 24.4037 2.839 24.2379 2.7778C24.0722 2.7166 23.8639 2.686 23.614 2.686C23.3463 2.686 23.1151 2.70045 22.9204 2.72935C22.7258 2.75825 22.5991 2.7846 22.5405 2.80755V6.7694H21.9735V2.41485L21.9727 2.41655Z" fill="white"/>
<path d="M27.5637 0.898448C27.5637 1.03275 27.5229 1.13815 27.4413 1.2172C27.3597 1.2954 27.2611 1.33535 27.1446 1.33535C27.0282 1.33535 26.9296 1.29625 26.848 1.2172C26.7664 1.139 26.7256 1.03275 26.7256 0.898448C26.7256 0.764148 26.7664 0.658748 26.848 0.579698C26.9296 0.501498 27.0282 0.461548 27.1446 0.461548C27.2611 0.461548 27.3597 0.500648 27.4413 0.579698C27.5229 0.657898 27.5637 0.764148 27.5637 0.898448ZM27.4328 6.77195H26.8658V2.26015H27.4328V6.77195Z" fill="white"/>
<path d="M30.7413 6.86804C30.3919 6.86804 30.0842 6.81278 29.8165 6.70228C29.5487 6.59178 29.326 6.43284 29.1484 6.22628C28.9707 6.01974 28.8356 5.77238 28.7429 5.48423C28.6494 5.19608 28.6035 4.87734 28.6035 4.52884C28.6035 4.18034 28.6511 3.85138 28.7472 3.55983C28.8432 3.26913 28.9809 3.01839 29.162 2.80929C29.3422 2.60019 29.5606 2.43869 29.8165 2.32479C30.0723 2.21174 30.3605 2.15479 30.6801 2.15479C30.924 2.15479 31.1527 2.17519 31.3652 2.21599C31.5777 2.25679 31.7417 2.30949 31.8582 2.37324L31.7094 2.86199C31.593 2.80419 31.4621 2.75744 31.3167 2.72259C31.1714 2.68774 30.9767 2.66989 30.7319 2.66989C30.2313 2.66989 29.8522 2.83139 29.5929 3.15439C29.3337 3.47739 29.2045 3.93554 29.2045 4.52884C29.2045 4.79659 29.2334 5.04223 29.292 5.26578C29.3498 5.49018 29.445 5.68144 29.5759 5.84209C29.7068 6.00189 29.8751 6.12768 30.0825 6.21694C30.2891 6.30703 30.5407 6.35209 30.8373 6.35209C31.0813 6.35209 31.287 6.32488 31.4527 6.26878C31.6185 6.21353 31.7392 6.16593 31.8148 6.12513L31.9372 6.61388C31.8327 6.67168 31.6678 6.72863 31.4442 6.78388C31.2198 6.83913 30.9861 6.86719 30.7413 6.86719V6.86804Z" fill="white"/>
<path d="M34.3305 2.15479C34.6271 2.15479 34.8787 2.19729 35.0853 2.28144C35.2918 2.36559 35.4593 2.48204 35.5868 2.63078C35.7143 2.77953 35.8078 2.95549 35.8664 3.15864C35.9242 3.36264 35.954 3.58364 35.954 3.82164V6.66658C35.8962 6.68443 35.8112 6.70314 35.7007 6.72353C35.5902 6.74393 35.4618 6.76604 35.3165 6.78899C35.1711 6.81193 35.0096 6.83148 34.832 6.84593C34.6543 6.86038 34.4724 6.86804 34.2863 6.86804C34.0474 6.86804 33.8281 6.84168 33.6275 6.78983C33.4269 6.73713 33.2527 6.65468 33.1039 6.54078C32.9552 6.42773 32.8387 6.28238 32.7546 6.10473C32.6704 5.92708 32.6279 5.71033 32.6279 5.45448C32.6279 5.19863 32.6747 5.00058 32.7673 4.82633C32.86 4.65209 32.9909 4.50758 33.16 4.39453C33.3283 4.28148 33.5298 4.19818 33.7618 4.14548C33.9947 4.09278 34.2472 4.06729 34.5209 4.06729C34.6025 4.06729 34.6883 4.07154 34.7784 4.08004C34.8685 4.08854 34.9561 4.10044 35.0402 4.11489C35.1244 4.12934 35.1975 4.14378 35.2587 4.15824C35.3199 4.17268 35.3615 4.18628 35.3853 4.19734V3.91769C35.3853 3.76044 35.3734 3.60828 35.3505 3.45953C35.3275 3.31078 35.2765 3.17734 35.1975 3.05834C35.1193 2.93934 35.0079 2.84329 34.866 2.77019C34.7232 2.69709 34.5353 2.66139 34.3033 2.66139C33.9718 2.66139 33.7244 2.68433 33.5612 2.73109C33.398 2.77784 33.279 2.81524 33.2034 2.84414L33.1252 2.34689C33.2238 2.30014 33.3768 2.25679 33.5833 2.21599C33.7899 2.17519 34.0381 2.15479 34.3296 2.15479H34.3305ZM34.3832 6.36144C34.6042 6.36144 34.798 6.35464 34.9637 6.33933C35.1295 6.32488 35.2706 6.30619 35.387 6.28239V4.69374C35.3233 4.66484 35.2213 4.63424 35.0819 4.60194C34.9425 4.57049 34.7504 4.55434 34.5056 4.55434C34.3662 4.55434 34.2208 4.56454 34.0695 4.58494C33.9182 4.60534 33.7788 4.64869 33.6505 4.71584C33.5221 4.78299 33.4176 4.87478 33.336 4.99039C33.2544 5.10683 33.2136 5.26069 33.2136 5.45279C33.2136 5.62194 33.2408 5.76389 33.2969 5.88034C33.3521 5.99678 33.4303 6.08944 33.5323 6.15999C33.6343 6.22969 33.7559 6.28068 33.8987 6.31298C34.0415 6.34528 34.203 6.36059 34.3832 6.36059V6.36144Z" fill="white"/>
<path d="M38.4857 6.85015C38.2936 6.8442 38.1262 6.81955 37.9842 6.7762C37.8414 6.73285 37.7224 6.6657 37.6264 6.5756C37.5303 6.4855 37.4572 6.36905 37.4079 6.22625C37.3586 6.08345 37.334 5.90495 37.334 5.6899V0.10455L37.9009 0V5.6729C37.9009 5.8123 37.9137 5.9245 37.94 6.00865C37.9664 6.0928 38.0055 6.15995 38.0582 6.20925C38.1109 6.25855 38.1789 6.2951 38.263 6.31805C38.3472 6.341 38.4475 6.3614 38.5639 6.37925L38.4857 6.85015Z" fill="white"/>
</svg>
