<svg width="175" height="56" viewBox="0 0 175 56" fill="none" xmlns="http://www.w3.org/2000/svg">
<g clip-path="url(#clip0_316_10103)">
<path d="M49.685 47.8129V49.624H37.5801V28.3329H39.6649V47.8129H49.685Z" fill="black"/>
<path d="M57.9466 33.3755C58.989 33.3755 59.8751 33.5188 60.6048 33.8185C61.3345 34.1182 61.9208 34.5221 62.3769 35.0433C62.8329 35.5645 63.1587 36.19 63.3541 36.9066C63.5626 37.6233 63.6668 38.4051 63.6668 39.239V49.2592C63.4584 49.3243 63.1587 49.3895 62.7808 49.4546C62.3899 49.5328 61.9469 49.5979 61.4257 49.6892C60.9175 49.7673 60.3442 49.8325 59.7187 49.8846C59.0933 49.9367 58.4548 49.9628 57.8033 49.9628C56.9694 49.9628 56.1876 49.8716 55.4839 49.6892C54.7803 49.5067 54.1679 49.207 53.6337 48.8161C53.1125 48.4122 52.6955 47.904 52.4088 47.2786C52.1092 46.6531 51.9658 45.8844 51.9658 44.9853C51.9658 44.1253 52.1352 43.3826 52.461 42.7702C52.7867 42.1578 53.2558 41.6496 53.8422 41.2457C54.4415 40.8417 55.1452 40.5551 55.9661 40.3726C56.787 40.1902 57.673 40.099 58.6372 40.099C58.9239 40.099 59.2236 40.112 59.5493 40.1511C59.8621 40.1772 60.1748 40.2293 60.4745 40.2684C60.7742 40.3205 61.0217 40.3726 61.2432 40.4248C61.4648 40.4769 61.6081 40.516 61.6863 40.5681V39.5908C61.6863 39.0436 61.6472 38.4963 61.569 37.9751C61.4908 37.4539 61.3084 36.9848 61.0348 36.5548C60.7611 36.1379 60.3702 35.7991 59.8621 35.5385C59.3539 35.2779 58.7024 35.1606 57.8815 35.1606C56.7088 35.1606 55.8488 35.2388 55.2755 35.4082C54.7021 35.5776 54.2852 35.7079 54.0115 35.8121L53.7379 34.0661C54.0897 33.8967 54.624 33.7534 55.3536 33.61C56.0442 33.4406 56.9303 33.3755 57.9466 33.3755ZM58.1291 48.1907C58.9109 48.1907 59.5884 48.1646 60.1748 48.1125C60.7611 48.0604 61.2563 47.9952 61.6602 47.9171V42.3272C61.4387 42.2229 61.0739 42.1187 60.5787 42.0014C60.0836 41.8841 59.406 41.832 58.546 41.832C58.0509 41.832 57.5427 41.8711 57.0085 41.9363C56.4742 42.0144 55.9791 42.1578 55.5361 42.3923C55.08 42.6268 54.7152 42.9526 54.4285 43.3565C54.1418 43.7605 53.9985 44.3077 53.9985 44.9853C53.9985 45.5847 54.0897 46.0798 54.2852 46.4968C54.4806 46.9007 54.7543 47.2395 55.1191 47.474C55.4709 47.7216 55.9139 47.904 56.4091 48.0083C56.9303 48.1255 57.5036 48.1907 58.1291 48.1907Z" fill="black"/>
<path d="M68.2923 34.2876C68.8917 34.1182 69.6865 33.9358 70.6899 33.7403C71.6932 33.5319 72.918 33.4276 74.3774 33.4276C75.5892 33.4276 76.5925 33.597 77.4004 33.9488C78.2082 34.3006 78.8597 34.7958 79.3418 35.4342C79.824 36.0857 80.1627 36.8545 80.3712 37.7536C80.5797 38.6527 80.6839 39.643 80.6839 40.7375V49.624H78.6903V41.389C78.6903 40.2684 78.6122 39.3042 78.4558 38.5354C78.2994 37.7536 78.0519 37.1282 77.687 36.633C77.3222 36.1379 76.8531 35.7861 76.2667 35.5776C75.6804 35.3561 74.9507 35.2518 74.0647 35.2518C73.1265 35.2518 72.3056 35.3039 71.615 35.4082C70.9244 35.5124 70.4814 35.6036 70.2729 35.6818V49.637H68.2793L68.2923 34.2876Z" fill="black"/>
<path d="M98.0009 49.1419C97.4015 49.3504 96.6457 49.5458 95.7206 49.7282C94.7955 49.9107 93.6358 50.0019 92.2155 50.0019C91.0428 50.0019 89.9874 49.8064 89.0362 49.4285C88.085 49.0507 87.2641 48.5034 86.5735 47.7867C85.8829 47.0701 85.3487 46.1971 84.9708 45.1807C84.5929 44.1514 84.3975 43.0047 84.3975 41.7017C84.3975 40.4899 84.5538 39.3823 84.8796 38.366C85.1923 37.3496 85.6614 36.4766 86.2738 35.7339C86.8862 34.9912 87.642 34.4179 88.528 34.0139C89.414 33.61 90.4434 33.4015 91.5901 33.4015C92.6325 33.4015 93.5446 33.5449 94.3134 33.8446C95.0821 34.1442 95.6424 34.4179 95.9942 34.6915V26.1438L97.9878 25.7789V49.1419H98.0009ZM96.0073 36.633C95.8248 36.4897 95.5903 36.3333 95.3167 36.1769C95.043 36.0076 94.7173 35.8642 94.3524 35.7209C93.9876 35.5776 93.5837 35.4603 93.1537 35.3691C92.7237 35.2779 92.2676 35.2257 91.7985 35.2257C90.8213 35.2257 89.9874 35.3951 89.3228 35.7469C88.6583 36.0988 88.1241 36.5548 87.7071 37.1412C87.3032 37.7275 87.0035 38.4181 86.8211 39.1999C86.6386 39.9948 86.5474 40.8287 86.5474 41.7017C86.5474 43.7865 87.0686 45.3892 88.111 46.5098C89.1534 47.6304 90.5346 48.1907 92.2546 48.1907C93.2319 48.1907 94.0267 48.1386 94.6391 48.0473C95.2385 47.9561 95.6945 47.8519 96.0073 47.7607V36.633Z" fill="black"/>
<path d="M106.013 48.2168C107.16 48.2168 108.111 48.0213 108.854 47.6434C109.597 47.2656 109.975 46.6271 109.975 45.728C109.975 45.298 109.909 44.9332 109.779 44.6205C109.649 44.3077 109.427 44.0341 109.115 43.7865C108.802 43.539 108.398 43.3044 107.903 43.0829C107.395 42.8614 106.782 42.5878 106.039 42.2881C105.44 42.0405 104.88 41.7929 104.346 41.5323C103.811 41.2717 103.342 40.9851 102.938 40.6463C102.534 40.3075 102.196 39.9036 101.961 39.4345C101.713 38.9654 101.596 38.3921 101.596 37.7145C101.596 36.4245 102.078 35.3821 103.056 34.5743C104.033 33.7794 105.362 33.3755 107.069 33.3755C108.15 33.3755 109.049 33.4667 109.753 33.6491C110.457 33.8315 110.952 34.0009 111.238 34.1443L110.782 35.9294C110.535 35.8121 110.118 35.6427 109.532 35.4342C108.945 35.2258 108.098 35.1215 106.965 35.1215C106.509 35.1215 106.092 35.1736 105.688 35.2649C105.284 35.3561 104.932 35.4994 104.632 35.6948C104.333 35.8903 104.085 36.1379 103.889 36.4376C103.707 36.7373 103.616 37.1021 103.616 37.5321C103.616 37.9621 103.694 38.3269 103.863 38.6396C104.033 38.9524 104.267 39.226 104.58 39.4605C104.893 39.6951 105.284 39.9166 105.753 40.1251C106.209 40.3336 106.743 40.5551 107.329 40.8026C107.942 41.0502 108.528 41.2978 109.102 41.5584C109.662 41.819 110.157 42.1187 110.587 42.4835C111.017 42.8484 111.369 43.2784 111.629 43.7735C111.89 44.2817 112.033 44.9071 112.033 45.6629C112.033 47.0962 111.499 48.1777 110.418 48.9204C109.336 49.6631 107.877 50.0279 106.013 50.0279C104.619 50.0279 103.551 49.9107 102.821 49.6761C102.091 49.4416 101.596 49.2592 101.349 49.1419L101.87 47.3307C101.935 47.3698 102.065 47.435 102.274 47.5262C102.482 47.6174 102.756 47.7216 103.108 47.8389C103.46 47.9562 103.876 48.0474 104.359 48.1255C104.815 48.1777 105.375 48.2168 106.013 48.2168Z" fill="black"/>
<path d="M122.25 49.9628C121.025 49.9628 119.931 49.7673 118.993 49.3764C118.054 48.9855 117.273 48.4252 116.647 47.6955C116.022 46.9658 115.54 46.0928 115.214 45.0895C114.888 44.0732 114.719 42.9526 114.719 41.7277C114.719 40.4769 114.888 39.3432 115.227 38.3139C115.566 37.2845 116.048 36.4115 116.686 35.6688C117.325 34.926 118.094 34.3657 118.993 33.9618C119.892 33.5579 120.908 33.3624 122.042 33.3624C122.902 33.3624 123.71 33.4406 124.452 33.5839C125.195 33.7273 125.781 33.9097 126.185 34.1312L125.664 35.8512C125.26 35.6427 124.791 35.4863 124.283 35.356C123.775 35.2388 123.084 35.1736 122.224 35.1736C120.465 35.1736 119.123 35.7469 118.211 36.8806C117.299 38.0142 116.843 39.6299 116.843 41.7147C116.843 42.6529 116.947 43.5259 117.155 44.3077C117.364 45.1025 117.69 45.7671 118.159 46.3404C118.615 46.9007 119.214 47.3437 119.944 47.6564C120.673 47.9692 121.56 48.1385 122.602 48.1385C123.462 48.1385 124.179 48.0473 124.765 47.8519C125.351 47.6564 125.768 47.487 126.042 47.3437L126.472 49.0637C126.107 49.2722 125.521 49.4676 124.739 49.6631C123.944 49.8715 123.11 49.9628 122.25 49.9628Z" fill="black"/>
<path d="M134.588 33.3755C135.631 33.3755 136.517 33.5188 137.246 33.8185C137.976 34.1182 138.562 34.5221 139.018 35.0433C139.475 35.5645 139.8 36.19 139.996 36.9066C140.204 37.6233 140.308 38.4051 140.308 39.239V49.2592C140.1 49.3243 139.8 49.3895 139.422 49.4546C139.031 49.5328 138.575 49.5979 138.067 49.6892C137.559 49.7673 136.986 49.8325 136.36 49.8846C135.735 49.9367 135.096 49.9628 134.445 49.9628C133.598 49.9628 132.829 49.8716 132.126 49.6892C131.422 49.5067 130.81 49.207 130.275 48.8161C129.754 48.4122 129.337 47.904 129.05 47.2786C128.751 46.6531 128.607 45.8844 128.607 44.9853C128.607 44.1253 128.777 43.3826 129.103 42.7702C129.428 42.1578 129.897 41.6496 130.484 41.2457C131.083 40.8417 131.787 40.5551 132.608 40.3726C133.429 40.1902 134.315 40.099 135.279 40.099C135.565 40.099 135.865 40.112 136.191 40.1511C136.504 40.1772 136.816 40.2293 137.116 40.2684C137.416 40.3205 137.663 40.3726 137.885 40.4248C138.106 40.4769 138.25 40.516 138.328 40.5681V39.5908C138.328 39.0436 138.289 38.4963 138.211 37.9751C138.132 37.4539 137.95 36.9848 137.676 36.5548C137.403 36.1379 137.012 35.7991 136.504 35.5385C135.995 35.2779 135.344 35.1606 134.523 35.1606C133.35 35.1606 132.49 35.2388 131.917 35.4082C131.344 35.5776 130.927 35.7079 130.653 35.8121L130.38 34.0661C130.731 33.8967 131.266 33.7534 131.995 33.61C132.699 33.4406 133.572 33.3755 134.588 33.3755ZM134.784 48.1907C135.565 48.1907 136.243 48.1646 136.829 48.1125C137.416 48.0604 137.911 47.9952 138.315 47.9171V42.3272C138.093 42.2229 137.728 42.1187 137.233 42.0014C136.738 41.8841 136.061 41.832 135.201 41.832C134.705 41.832 134.197 41.8711 133.663 41.9363C133.129 42.0144 132.634 42.1578 132.191 42.3923C131.735 42.6268 131.37 42.9526 131.083 43.3565C130.796 43.7605 130.653 44.3077 130.653 44.9853C130.653 45.5847 130.744 46.0798 130.94 46.4968C131.135 46.9007 131.409 47.2395 131.774 47.474C132.126 47.7216 132.569 47.904 133.064 48.0083C133.572 48.1255 134.145 48.1907 134.784 48.1907Z" fill="black"/>
<path d="M146.942 55.3182H144.948V34.2876C145.548 34.0791 146.303 33.8837 147.229 33.7012C148.154 33.5188 149.313 33.4276 150.734 33.4276C151.906 33.4276 152.962 33.6231 153.913 34.0009C154.864 34.3788 155.685 34.9261 156.376 35.6427C157.066 36.3594 157.6 37.2324 157.978 38.2487C158.356 39.2781 158.552 40.4248 158.552 41.7278C158.552 42.9396 158.395 44.0471 158.07 45.0635C157.757 46.0798 157.288 46.9528 156.675 47.6695C156.063 48.3992 155.307 48.9595 154.421 49.3764C153.535 49.7804 152.506 49.9889 151.359 49.9889C150.317 49.9889 149.405 49.8455 148.636 49.5458C147.867 49.2461 147.307 48.9725 146.955 48.6989V55.3182H146.942ZM146.942 46.7704C147.124 46.9138 147.359 47.0701 147.632 47.2265C147.906 47.3959 148.232 47.5392 148.597 47.6825C148.962 47.8259 149.365 47.9431 149.795 48.0343C150.225 48.1256 150.681 48.1777 151.151 48.1777C152.128 48.1777 152.962 48.0083 153.626 47.6695C154.291 47.3307 154.825 46.8747 155.242 46.2883C155.646 45.702 155.946 45.0244 156.128 44.2296C156.31 43.4347 156.402 42.6008 156.402 41.7278C156.402 39.643 155.88 38.0403 154.838 36.9197C153.796 35.7991 152.414 35.2388 150.695 35.2388C149.717 35.2388 148.922 35.2909 148.31 35.3821C147.711 35.4733 147.255 35.5776 146.942 35.6688V46.7704Z" fill="black"/>
<path d="M161.574 41.6626C161.574 40.2684 161.77 39.0566 162.174 38.0142C162.578 36.9848 163.099 36.1118 163.737 35.4212C164.389 34.7306 165.118 34.2094 165.952 33.8706C166.786 33.5318 167.633 33.3624 168.519 33.3624C170.461 33.3624 172.011 34.0009 173.171 35.2648C174.331 36.5418 174.904 38.4963 174.904 41.1414C174.904 41.3108 174.904 41.4671 174.891 41.6365C174.878 41.8059 174.865 41.9493 174.839 42.0926H163.685C163.75 44.0341 164.232 45.5325 165.131 46.5749C166.031 47.6173 167.464 48.1385 169.431 48.1385C170.513 48.1385 171.373 48.0343 172.011 47.8258C172.65 47.6173 173.106 47.448 173.393 47.3046L173.757 49.0246C173.471 49.194 172.936 49.3894 172.142 49.6109C171.347 49.8325 170.422 49.9497 169.366 49.9497C167.972 49.9497 166.786 49.7412 165.796 49.3373C164.806 48.9334 163.998 48.3601 163.372 47.6173C162.734 46.8746 162.278 46.0016 161.991 44.9853C161.718 43.995 161.574 42.8744 161.574 41.6626ZM172.845 40.4117C172.806 38.7569 172.415 37.4669 171.673 36.5418C170.93 35.6166 169.887 35.1606 168.532 35.1606C167.816 35.1606 167.177 35.3039 166.617 35.5906C166.057 35.8772 165.561 36.2681 165.144 36.7372C164.728 37.2193 164.402 37.7796 164.167 38.4181C163.933 39.0566 163.789 39.7211 163.75 40.4117H172.845Z" fill="black"/>
<path d="M30.4262 0.318237H0.000976562V53.7546H30.4262V0.318237Z" fill="#E9500E"/>
<path d="M23.0382 43.617H13.9041C13.878 43.617 13.852 43.63 13.839 43.6431C13.8259 43.6561 13.8129 43.6822 13.8129 43.7082L13.8259 45.1936C13.8259 45.2458 13.865 45.2849 13.9302 45.2849H21.3052V46.8354H12.3144V28.1112C12.3144 28.0591 12.2753 28.007 12.2102 28.007H7.40209C7.34997 28.007 7.29785 28.046 7.29785 28.1112V48.4121C7.29785 48.4642 7.33694 48.5163 7.40209 48.5163H8.95267C8.97873 48.5163 9.00479 48.5033 9.01782 48.4903C9.03085 48.4772 9.04388 48.4512 9.04388 48.4251V29.6357L10.6336 29.6227L10.5814 48.3469C10.5814 48.373 10.5945 48.399 10.6075 48.4121C10.6205 48.4251 10.6466 48.4381 10.6726 48.4381H23.0382C23.0903 48.4381 23.1424 48.399 23.1424 48.3339V43.7082C23.1294 43.6561 23.0903 43.617 23.0382 43.617Z" fill="white"/>
<path d="M41.5544 21.8569C40.9941 21.8569 40.4468 21.7527 39.9256 21.5442C39.4305 21.3357 38.9874 21.023 38.6226 20.6321C38.2317 20.2021 37.932 19.6939 37.7496 19.1597C37.5281 18.5082 37.4238 17.8306 37.4238 17.14C37.4108 16.4494 37.5281 15.7719 37.7756 15.1334C37.9841 14.5861 38.2968 14.0779 38.7008 13.648C39.0786 13.2571 39.5217 12.9443 40.0298 12.7489C40.525 12.5404 41.0723 12.4362 41.6065 12.4362C41.9192 12.4362 42.2319 12.4622 42.5316 12.5013C42.7792 12.5404 43.0268 12.5925 43.2613 12.6707C43.4437 12.7228 43.6261 12.788 43.7955 12.8662C43.9128 12.9183 44.0301 12.9704 44.1343 13.0355L43.8477 13.8043C43.5871 13.648 43.3004 13.5307 43.0137 13.4264C42.1277 13.1398 41.1635 13.1789 40.2904 13.5177C39.8735 13.7001 39.5217 13.9737 39.235 14.3255C38.9353 14.6904 38.7138 15.1073 38.5835 15.5634C38.4402 16.0846 38.362 16.6188 38.375 17.153C38.362 17.7003 38.4402 18.2476 38.5835 18.7688C38.7138 19.2118 38.9223 19.6418 39.2089 20.0066C39.4826 20.3454 39.8344 20.606 40.2383 20.7884C40.6813 20.9839 41.1504 21.0751 41.6325 21.0621C42.1147 21.0751 42.5968 21.023 43.0789 20.8927C43.3786 20.8145 43.6783 20.7103 43.9649 20.5539L44.2125 21.3096C44.1083 21.3748 44.004 21.4269 43.8998 21.466C43.4698 21.6224 43.0137 21.7396 42.5577 21.7918C42.2189 21.8309 41.8931 21.8569 41.5544 21.8569Z" fill="black"/>
<path d="M47.7174 14.7685C48.0953 14.7555 48.4862 14.8206 48.838 14.9509C49.1247 15.0682 49.3853 15.2376 49.5937 15.4721C49.7892 15.7067 49.9325 15.9673 50.0107 16.2539C50.1019 16.5797 50.141 16.9054 50.141 17.2442V21.492C50.0107 21.5311 49.8934 21.5572 49.7631 21.5702C49.5937 21.5963 49.4113 21.6353 49.1898 21.6744C48.9683 21.7135 48.7338 21.7396 48.4732 21.7526C48.2126 21.7656 47.9389 21.7787 47.6523 21.7787C47.3265 21.7787 46.9877 21.7396 46.662 21.6614C46.3753 21.5963 46.1147 21.466 45.8802 21.2835C45.6587 21.1141 45.4762 20.8926 45.359 20.632C45.2287 20.3323 45.1635 19.9936 45.1635 19.6678C45.1505 19.342 45.2287 19.0163 45.372 18.7296C45.5153 18.469 45.7108 18.2475 45.9584 18.0912C46.232 17.9087 46.5317 17.7915 46.8574 17.7263C47.2353 17.6481 47.6132 17.609 47.991 17.609C48.1213 17.609 48.2516 17.6221 48.3689 17.6351C48.4992 17.6481 48.6295 17.6612 48.7598 17.6872C48.8901 17.7133 48.9944 17.7263 49.0856 17.7524C49.1507 17.7654 49.2159 17.7915 49.281 17.8175V17.4006C49.281 17.166 49.268 16.9445 49.2289 16.71C49.2028 16.5015 49.1247 16.293 49.0074 16.1106C48.8771 15.9282 48.7077 15.7718 48.5122 15.6806C48.2516 15.5633 47.965 15.5112 47.6783 15.5242C47.3004 15.5112 46.9356 15.5503 46.5708 15.6285C46.3232 15.6936 46.1538 15.7588 46.0365 15.7979L45.9193 15.0551C46.1408 14.9639 46.3623 14.8988 46.6099 14.8597C46.9747 14.7945 47.3526 14.7555 47.7174 14.7685ZM47.7956 21.049C48.1213 21.049 48.408 21.036 48.6556 21.0229C48.8641 21.0099 49.0856 20.9838 49.2941 20.9447V18.5602C49.1507 18.4951 48.9944 18.456 48.838 18.4169C48.5513 18.3648 48.2647 18.3387 47.978 18.3518C47.7565 18.3518 47.548 18.3648 47.3265 18.4039C47.105 18.4299 46.8965 18.4951 46.7011 18.5993C46.5186 18.6905 46.3493 18.8339 46.232 19.0163C46.1017 19.2248 46.0365 19.4593 46.0496 19.7069C46.0496 19.9284 46.0886 20.1499 46.1799 20.3454C46.258 20.5148 46.3753 20.6581 46.5317 20.7623C46.7011 20.8666 46.8835 20.9447 47.0789 20.9838C47.3265 21.0229 47.561 21.049 47.7956 21.049Z" fill="black"/>
<path d="M52.1084 15.1593C52.369 15.0942 52.7078 15.016 53.1247 14.9248C53.646 14.8336 54.1672 14.7814 54.6884 14.7945C55.1314 14.7814 55.5614 14.8596 55.9653 15.016C56.2911 15.1463 56.5777 15.3678 56.7862 15.6414C56.9947 15.9411 57.151 16.2669 57.2292 16.6317C57.3204 17.0487 57.3595 17.4656 57.3595 17.8956V21.6613H56.5126V18.1693C56.5126 17.7653 56.4865 17.3614 56.4214 16.9575C56.3692 16.6708 56.265 16.3972 56.0956 16.1496C55.9392 15.9411 55.7308 15.7847 55.4962 15.6935C55.1965 15.5893 54.8838 15.5502 54.5581 15.5502C54.2062 15.5502 53.8675 15.5632 53.5157 15.6154C53.3202 15.6414 53.1378 15.6805 52.9554 15.7326V21.6483H52.1084V15.1593Z" fill="black"/>
<path d="M65.0994 18.2997C65.0994 18.7948 65.0343 19.2769 64.8649 19.746C64.7215 20.1499 64.5131 20.5278 64.2264 20.8536C63.9528 21.1533 63.627 21.4008 63.2622 21.5572C62.4673 21.896 61.5813 21.896 60.7865 21.5572C60.4216 21.3878 60.0828 21.1533 59.8222 20.8536C59.5356 20.5278 59.3141 20.1499 59.1838 19.746C58.8841 18.8078 58.8841 17.7915 59.1838 16.8533C59.3271 16.4494 59.5356 16.0715 59.8222 15.7458C60.0959 15.4461 60.4216 15.1985 60.7865 15.0291C61.5813 14.6903 62.4673 14.6903 63.2622 15.0291C63.627 15.1985 63.9658 15.4461 64.2264 15.7458C64.5131 16.0715 64.7215 16.4494 64.8649 16.8533C65.0212 17.3094 65.0994 17.8045 65.0994 18.2997ZM64.2003 18.2997C64.2003 17.4527 64.0049 16.7882 63.614 16.293C62.8843 15.42 61.5943 15.2897 60.7083 16.0194C60.604 16.0976 60.5128 16.2018 60.4346 16.293C60.0437 16.7882 59.8483 17.4657 59.8483 18.2997C59.8483 19.1466 60.0437 19.8112 60.4216 20.3063C61.1643 21.1793 62.4673 21.2966 63.3404 20.5669C63.4316 20.4887 63.5228 20.3975 63.601 20.3063C64.0049 19.8112 64.2003 19.1336 64.2003 18.2997Z" fill="black"/>
<path d="M66.7539 15.1594C67.0145 15.0943 67.3533 15.0161 67.7703 14.9249C68.2915 14.8337 68.8127 14.7816 69.3339 14.7946C69.7769 14.7816 70.2069 14.8597 70.6108 15.0161C70.9366 15.1464 71.2232 15.3679 71.4317 15.6415C71.6402 15.9412 71.7965 16.267 71.8747 16.6318C71.9659 17.0488 72.005 17.4658 72.005 17.8957V21.6614H71.1581V18.1694C71.1581 17.7654 71.132 17.3615 71.0669 16.9576C71.0148 16.6709 70.9105 16.3973 70.7411 16.1497C70.5848 15.9412 70.3763 15.7849 70.1417 15.6937C69.842 15.5894 69.5293 15.5503 69.2036 15.5503C68.8517 15.5503 68.513 15.5634 68.1612 15.6155C67.9657 15.6415 67.7833 15.6806 67.6009 15.7328V21.6484H66.7539V15.1594Z" fill="black"/>
<path d="M74.9768 12.8792C74.9898 13.0617 74.9247 13.2311 74.7944 13.3614C74.5468 13.5959 74.1559 13.5959 73.9083 13.3614C73.6608 13.0877 73.6608 12.6838 73.9083 12.4102C74.1559 12.1756 74.5468 12.1756 74.7944 12.4102C74.9247 12.5274 74.9898 12.7099 74.9768 12.8792ZM74.7814 21.6485H73.9344V14.9119H74.7814V21.6485Z" fill="black"/>
<path d="M79.6022 21.8047C79.1331 21.8178 78.664 21.7266 78.221 21.5572C77.8431 21.4008 77.4913 21.1532 77.2307 20.8405C76.9571 20.5148 76.7486 20.1369 76.6183 19.733C76.3447 18.7948 76.3447 17.7915 76.6183 16.8533C76.7486 16.4363 76.9571 16.0585 77.2438 15.7327C77.5174 15.42 77.8431 15.1724 78.221 15.003C78.6249 14.8336 79.068 14.7424 79.511 14.7424C79.8498 14.7424 80.2016 14.7685 80.5404 14.8336C80.801 14.8727 81.0485 14.9509 81.2831 15.0682L81.0485 15.8239C80.8661 15.7327 80.6707 15.6676 80.4622 15.6154C80.1755 15.5503 79.8758 15.5242 79.5892 15.5373C78.8465 15.5373 78.2731 15.7718 77.8822 16.2539C77.4913 16.736 77.2959 17.4136 77.3089 18.2996C77.3089 18.6775 77.348 19.0424 77.4392 19.4072C77.5174 19.7199 77.6607 20.0196 77.8562 20.2672C78.0646 20.5148 78.3122 20.7102 78.6119 20.8275C78.9637 20.9708 79.3546 21.036 79.7455 21.036C80.0583 21.049 80.371 20.9969 80.6576 20.9057C80.8401 20.8535 81.0225 20.7754 81.2049 20.6972L81.3873 21.4269C81.1528 21.5441 80.9052 21.6223 80.6576 21.6875C80.3058 21.7526 79.954 21.8047 79.6022 21.8047Z" fill="black"/>
<path d="M84.8277 14.7684C85.2055 14.7554 85.5964 14.8205 85.9482 14.9508C86.2349 15.0681 86.4955 15.2375 86.704 15.472C86.8994 15.7066 87.0428 15.9672 87.121 16.2538C87.2122 16.5796 87.2513 16.9053 87.2513 17.2441V21.4919C87.121 21.531 86.9907 21.5571 86.8734 21.5701C86.704 21.5962 86.5216 21.6352 86.3001 21.6743C86.0785 21.7134 85.844 21.7395 85.5834 21.7525C85.3228 21.7786 85.0492 21.7786 84.7625 21.7786C84.4368 21.7786 84.098 21.7395 83.7722 21.6613C83.4856 21.5962 83.225 21.4659 82.9904 21.2834C82.7689 21.114 82.5865 20.8925 82.4692 20.6319C82.3389 20.3322 82.2738 19.9935 82.2868 19.6677C82.2738 19.342 82.3519 19.0162 82.4953 18.7295C82.6386 18.4689 82.8341 18.2474 83.0816 18.0911C83.3553 17.9086 83.655 17.7914 83.9807 17.7262C84.3586 17.648 84.7364 17.5959 85.1274 17.5959C85.2577 17.5959 85.388 17.609 85.5052 17.622C85.6355 17.635 85.7658 17.648 85.8961 17.6741C86.0264 17.7002 86.1307 17.7132 86.2219 17.7393C86.287 17.7523 86.3522 17.7783 86.4173 17.8044V17.3874C86.4173 17.1529 86.4043 16.9314 86.3652 16.6968C86.3391 16.4884 86.261 16.2799 86.1437 16.0975C86.0134 15.915 85.844 15.7587 85.6486 15.6675C85.388 15.5502 85.1013 15.4981 84.8146 15.5111C84.4368 15.4981 84.0719 15.5372 83.7071 15.6153C83.4595 15.6805 83.2901 15.7457 83.1728 15.7847L83.0556 15.042C83.2771 14.9508 83.4986 14.8857 83.7462 14.8466C84.0849 14.7814 84.4498 14.7554 84.8277 14.7684ZM84.9058 21.0489C85.2316 21.0489 85.5313 21.0359 85.7789 21.0228C85.9873 21.0098 86.1958 20.9837 86.4043 20.9447V18.5601C86.261 18.495 86.1046 18.4559 85.9482 18.4168C85.6616 18.3647 85.3749 18.3386 85.0883 18.3517C84.8668 18.3517 84.6583 18.3647 84.4368 18.4038C84.2152 18.4298 84.0068 18.495 83.8113 18.5992C83.6289 18.6905 83.4595 18.8338 83.3422 19.0162C83.2119 19.2247 83.1468 19.4592 83.1598 19.7068C83.1598 19.9283 83.1989 20.1498 83.2901 20.3453C83.3683 20.5147 83.4856 20.658 83.6419 20.7622C83.8113 20.8665 83.9937 20.9447 84.1892 20.9837C84.4237 21.0228 84.6713 21.0489 84.9058 21.0489Z" fill="black"/>
<path d="M90.9127 21.7788C90.6651 21.7788 90.4045 21.7397 90.1569 21.6615C89.9615 21.6094 89.7791 21.5052 89.6227 21.3618C89.4794 21.2185 89.3621 21.0361 89.297 20.8406C89.2188 20.58 89.1797 20.3064 89.1797 20.0458V11.7065L90.0266 11.5502V20.0197C90.0266 20.1891 90.0397 20.3585 90.0918 20.5279C90.1179 20.6452 90.183 20.7364 90.2612 20.8276C90.3524 20.9058 90.4566 20.9579 90.5739 20.984C90.7172 21.023 90.8736 21.0491 91.0169 21.0752L90.9127 21.7788Z" fill="black"/>
</g>
<defs>
<clipPath id="clip0_316_10103">
<rect width="174.903" height="55" fill="white" transform="translate(0 0.318115)"/>
</clipPath>
</defs>
</svg>
