<?xml version="1.0" encoding="UTF-8"?>
<svg width="22px" height="32px" viewBox="0 0 22 32" version="1.1" xmlns="http://www.w3.org/2000/svg" xmlns:xlink="http://www.w3.org/1999/xlink">
    <title>Group</title>
    <g id="Page-1" stroke="none" stroke-width="1" fill="none" fill-rule="evenodd">
        <g id="logo-white-full" fill-rule="nonzero">
            <g id="Group" transform="translate(0.500000, 0.000000)">
                <polygon id="Path" fill="#E95420" points="21 0 0 0 0 32 21 32"></polygon>
                <path d="M15.89,25.5901 L9.58,25.5901 C9.58,25.5901 9.54,25.5901 9.53,25.6101 C9.52,25.6201 9.51,25.6401 9.51,25.6601 L9.51,26.6901 C9.51,26.6901 9.55,26.7601 9.59,26.7601 L14.68,26.7601 L14.68,27.8201 L8.47002,27.8201 L8.47002,14.9001 C8.47002,14.9001 8.44002,14.8301 8.40002,14.8301 L5.09002,14.8301 C5.09002,14.8301 5.02002,14.8601 5.02002,14.9001 L5.02002,28.9201 C5.02002,28.9201 5.05002,28.9901 5.09002,28.9901 L6.16002,28.9901 C6.16002,28.9901 6.20002,28.9901 6.21002,28.9701 C6.22002,28.9501 6.23002,28.9401 6.23002,28.9201 L6.23002,15.9401 L7.31002,15.9401 L7.27002,28.8501 C7.27002,28.8501 7.27002,28.8901 7.29002,28.9001 C7.30002,28.9101 7.32002,28.9201 7.34002,28.9201 L15.89,28.9201 C15.89,28.9201 15.96,28.8901 15.96,28.8501 L15.96,25.6601 C15.96,25.6601 15.93,25.5901 15.89,25.5901 Z" id="Path" fill="#FFFFFF"></path>
            </g>
        </g>
    </g>
</svg>