<svg width="12" height="15" viewBox="0 0 12 15" fill="none" xmlns="http://www.w3.org/2000/svg">
<path d="M11.3425 11.3184L4.85698 11.3184C4.83828 11.3184 4.82043 11.3261 4.80768 11.3388C4.79493 11.3524 4.78728 11.3703 4.78728 11.389L4.79748 12.4464C4.79748 12.4846 4.82893 12.5152 4.86718 12.5152L10.1057 12.5152V13.6092L3.72308 13.6092L3.72308 0.317747C3.72308 0.279498 3.69163 0.248047 3.65338 0.248047L0.247434 0.248047C0.209184 0.248047 0.177734 0.279498 0.177734 0.317747L0.177734 14.7312C0.177734 14.7694 0.209184 14.8009 0.247434 14.8009H1.35243C1.37113 14.8009 1.38898 14.7932 1.40173 14.7805C1.41448 14.7677 1.42213 14.7499 1.42213 14.7312L1.40853 1.39725L2.53478 1.3845L2.49398 14.6725C2.49398 14.6912 2.50163 14.7091 2.51438 14.7218C2.52713 14.7354 2.54498 14.7422 2.56368 14.7422L11.3425 14.7422C11.3807 14.7422 11.4122 14.7108 11.4122 14.6725V11.3881C11.4122 11.3499 11.3807 11.3184 11.3425 11.3184Z" fill="white"/>
</svg>
