<svg width="31" height="56" viewBox="0 0 31 56" fill="none" xmlns="http://www.w3.org/2000/svg">
<g clip-path="url(#clip0_316_10103)">
<path d="M30.4262 0.318237H0.000976562V53.7546H30.4262V0.318237Z" fill="#E9500E"/>
<path d="M23.0382 43.617H13.9041C13.878 43.617 13.852 43.63 13.839 43.6431C13.8259 43.6561 13.8129 43.6822 13.8129 43.7082L13.8259 45.1936C13.8259 45.2458 13.865 45.2849 13.9302 45.2849H21.3052V46.8354H12.3144V28.1112C12.3144 28.0591 12.2753 28.007 12.2102 28.007H7.40209C7.34997 28.007 7.29785 28.046 7.29785 28.1112V48.4121C7.29785 48.4642 7.33694 48.5163 7.40209 48.5163H8.95267C8.97873 48.5163 9.00479 48.5033 9.01782 48.4903C9.03085 48.4772 9.04388 48.4512 9.04388 48.4251V29.6357L10.6336 29.6227L10.5814 48.3469C10.5814 48.373 10.5945 48.399 10.6075 48.4121C10.6205 48.4251 10.6466 48.4381 10.6726 48.4381H23.0382C23.0903 48.4381 23.1424 48.399 23.1424 48.3339V43.7082C23.1294 43.6561 23.0903 43.617 23.0382 43.617Z" fill="white"/>
</g>
<defs>
<clipPath id="clip0_316_10103">
<rect width="31" height="55" fill="white" transform="translate(0 0.318115)"/>
</clipPath>
</defs>
</svg>
